<?xml version="1.0" encoding="utf-8"?>
<!-- Generator: Adobe Illustrator 19.2.1, SVG Export Plug-In . SVG Version: 6.00 Build 0)  -->
<svg version="1.0" id="Layer_1" xmlns="http://www.w3.org/2000/svg" xmlns:xlink="http://www.w3.org/1999/xlink" x="0px" y="0px"
	 viewBox="0 0 311.333 170.912" enable-background="new 0 0 311.333 170.912" xml:space="preserve">
<g>
	<g>
		<path fill="#393939" d="M169.958,10.927c0.253,0.611,0.909,2.725-1.06,4.867c2.136,8.458,1.037,25.477-3.965,42.31
			c0.709-0.308,1.51-0.585,2.357-0.84c4.586-16.277,5.554-32.457,3.489-40.635c1.969-2.142,1.309-4.256,1.056-4.867
			c-0.632-1.527-2.044-2.415-3.47-2.759C169.042,9.472,169.617,10.101,169.958,10.927z"/>
		<path fill="#393939" d="M178.5,58.94c0.851,2.053,0.521,5.631-1.195,7.345c-4.176,4.176-10.027,29.775-10.642,39.219
			c0.684-0.466,1.408-1.115,2.151-1.88c1.255-10.315,6.004-30.371,9.752-35.728c0.794-2.659,1.564-4.721,2.252-5.781
			c-0.023-0.86-0.161-1.681-0.434-2.339c-0.601-1.452-1.816-2.425-3.254-2.654C177.712,57.58,178.19,58.192,178.5,58.94z"/>
		<path fill="#393939" d="M128.359,101.633c-0.005-0.337-0.01-0.676-0.013-1.017c-0.089,0.49-0.177,0.973-0.261,1.447
			C128.175,101.922,128.266,101.779,128.359,101.633z"/>
		<path fill="#393939" d="M149.044,119.992c-0.472-7.978,0.073-17.876,1.663-29.39c0.507-0.589,0.99-1.211,1.478-1.827
			c0.287-1.497,0.595-3.053,0.918-4.631c-1.341,1.982-2.768,3.865-4.282,5.621c-1.88,13.615-2.316,25.002-1.314,33.585
			C148.024,122.264,148.538,121.135,149.044,119.992z"/>
		<path fill="#393939" d="M109.133,89.945c4.452-12.696,8.322-18.586,9.861-19.503c0.094,0.02,0.208,0.055,0.326,0.093
			c-0.911-0.475-1.732-0.828-2.212-0.929c-1.539,0.916-5.409,6.807-9.861,19.503c-1.782,5.084-3.098,9.609-3.995,13.233
			c1.015-1.416,2.169-3.058,3.467-4.938C107.403,95.099,108.201,92.605,109.133,89.945z"/>
		<path fill="#393939" d="M119.993,60.065c2.901,2.123,5.673,5.449,5.673,9.238v1.993c1-0.07,1-0.111,1-0.118V70.14
			c0-3.789-2.329-7.115-5.231-9.238c-1.734-1.268-3.651-2.585-5.676-3.37C117.203,58.271,118.779,59.177,119.993,60.065z"/>
		<path fill="#393939" d="M94.08,65.761c0,0.344-0.026,0.675-0.078,0.991c0.532-0.784,1.085-1.539,1.659-2.261
			c-0.702-2.557-2.614-5.239-5.574-6.024C92.681,60.107,94.08,63.319,94.08,65.761z"/>
		<path fill="#393939" d="M219.034,96.151c-0.382,0-0.778-0.074-1.178-0.181c1.038,0.64,2.09,1.018,3.064,1.018
			c0.065,0,0.13-0.01,0.195-0.012c0.054-0.362,0.1-0.714,0.16-1.082C220.532,96.057,219.78,96.151,219.034,96.151z"/>
		<path fill="#393939" d="M197.849,37.823c0-7.538,3.231-13.478,5.953-15.709c-0.32-0.495-0.621-1.007-0.985-1.46
			c-2.848,1.516-6.854,7.942-6.854,16.333c0,3.203,6.849,7.691,12.644,11.02c-0.001-0.094-0.005-0.18-0.006-0.274
			C203.307,44.563,197.849,40.682,197.849,37.823z"/>
		<path fill="#393939" d="M269.14,76.77c0,2.079-0.438,7.9-1.087,14.64c-0.762,7.942-1.568,16.945-1.568,20.432
			c0.155,0.841,2.201,3.272,4.823,4.047c-1.679-1.056-2.85-2.583-2.965-3.211c0-3.487,0.777-12.49,1.54-20.432
			c0.649-6.74,1.031-12.561,1.031-14.64c0-1.123-1.088-3.055-3.38-3.7C268.627,74.774,269.14,75.975,269.14,76.77z"/>
		<path fill="#393939" d="M257.915,60.065c2.901,2.123,5.752,5.449,5.752,9.238v3.536c0,0.012,2,0.132,2,0.295V70.14
			c0-3.789-2.908-7.115-5.809-9.238c-1.734-1.268-3.901-2.585-5.926-3.37C255.374,58.271,256.7,59.177,257.915,60.065z"/>
		<path fill="#393939" d="M246.976,89.945c4.452-12.696,8.322-18.586,9.861-19.503c0.094,0.02,0.208,0.055,0.326,0.093
			c-0.911-0.475-1.732-0.828-2.212-0.929c-1.539,0.916-5.409,6.807-9.861,19.503c-1.781,5.084-3.096,9.608-3.995,13.229
			c1.014-1.413,2.173-3.063,3.469-4.941C245.248,95.095,246.045,92.603,246.976,89.945z"/>
		<path fill="#393939" d="M218.452,50.758c0,0.886-0.008,1.766-0.024,2.644c7.627,4.215,11.234,6.81,11.234,10.505
			c0,2.081-0.973,5.764-2.567,11.565c1.136-2.637,2.492-5.291,4.075-7.763c0.244-1.219,0.378-2.203,0.378-2.966
			c0-3.695-3.607-6.289-11.234-10.505c0.016-0.877,0.024-1.758,0.024-2.644c0-30.942-8.496-48.531-17.704-51.594
			C211.083,4.706,218.452,21.942,218.452,50.758z"/>
		<path fill="#393939" d="M200.739,67.121c1.722-1.722,2.06-5.302,1.21-7.353c-0.6-1.449-1.812-2.419-3.248-2.646
			c0.579,0.456,1.055,1.065,1.363,1.81c0.85,2.052,0.512,5.631-1.21,7.353c-4.089,4.089-9.801,28.677-10.633,38.585
			c0.633-0.471,1.375-1.071,2.17-1.746C191.824,92.074,196.969,70.891,200.739,67.121z"/>
		<path fill="#393939" d="M174.252,113.346c-2.885,2.984-6.745,6.126-10.205,6.126c-1.372,0-2.825-0.373-4.256-1.072
			c-2.486,6.539-5.97,13.4-8.687,17.665c0.6,1.033,1.257,1.909,1.962,2.616c2.039,2.04,1.526,4.029,1.21,4.789
			c-0.332,0.806-1.466,2.679-4.775,2.679c-0.936,0-2.06-0.167-3.199-0.541c1.719,0.987,3.627,1.377,5.085,1.377
			c3.309,0,4.442-1.873,4.775-2.679c0.316-0.761,0.829-2.749-1.21-4.789c-0.706-0.707-1.362-1.583-1.962-2.616
			c2.717-4.265,6.2-11.126,8.687-17.665c1.43,0.699,2.884,1.072,4.256,1.072c3.134,0,6.589-2.579,9.358-5.283
			C174.923,114.501,174.571,113.95,174.252,113.346z"/>
		<path fill="#393939" d="M129.491,114.994c-4.932,5.931-7.102,5.931-8.054,5.931c-0.733,0-1.505-0.144-2.277-0.395
			c1.368,0.773,2.827,1.231,4.163,1.231c0.855,0,2.699-0.015,6.637-4.31C129.8,116.635,129.626,115.835,129.491,114.994z"/>
		<path fill="#393939" d="M112.067,108.051c-5.183,6.664-11.004,12.9-14.634,12.9c-0.946,0-1.939-0.223-2.942-0.58
			c1.632,0.884,3.29,1.416,4.828,1.416c3.155,0,7.966-4.714,12.575-10.324C111.91,110.804,111.968,109.629,112.067,108.051z"/>
		<path fill="#393939" d="M91.962,70.072c0.054-0.096,0.107-0.193,0.162-0.289c-0.016,0.011-0.032,0.023-0.049,0.032
			C92.038,69.897,92,69.981,91.962,70.072z"/>
		<path fill="#393939" d="M251.325,109.369c-0.029-0.866-0.062-1.898-0.096-3.056c-5.294,6.997-11.984,14.638-15.952,14.638
			c-0.951,0-1.948-0.219-2.956-0.58c1.637,0.89,3.3,1.422,4.842,1.422c3.534,0,9.224-6.054,14.166-12.32
			C251.327,109.436,251.326,109.406,251.325,109.369z"/>
		<path fill="#393939" d="M306.674,62.249c1.697,1.525,2.774,3.572,2.774,6.329c0,21.012-2.293,34.304-7.438,43.062
			c-5.628,9.582-14.742,14.052-28.684,14.052c-4.456,0-8.652-0.894-12.158-2.409c3.837,2.073,8.754,3.348,14.043,3.348
			c13.941,0,23.056-4.367,28.684-13.949c5.144-8.758,7.438-21.843,7.438-42.856C311.333,66.15,309.426,63.779,306.674,62.249z"/>
		<path fill="#393939" d="M211.885,90.948c-2.924,7.597-6.765,13.88-11.405,18.52c-1.672,1.67-10.378,10.003-17.665,10.003
			c-0.765,0-1.506-0.129-2.225-0.343c1.27,0.754,2.651,1.179,4.11,1.179c7.287,0,15.993-8.333,17.665-10.003
			c4.416-4.416,8.097-10.334,10.964-17.442C212.814,92.278,212.324,91.641,211.885,90.948z"/>
		<path fill="#393939" d="M48.842,55.724c1.22,2.947,0.045,6.693-1.844,8.828c-1.028,2.16-4.123,12.66-6.774,24.456
			c1.708-4.707,3.513-9.193,5.315-12.963c1.479-5.412,2.754-9.415,3.345-10.657c1.889-2.134,3.064-5.881,1.844-8.828
			c-0.387-0.932-1.512-2.821-4.212-3.584C47.882,53.87,48.562,55.048,48.842,55.724z"/>
		<path fill="#393939" d="M86.853,114.741c-0.65-0.761-1.268-1.547-1.801-2.37c-1.255,19.725,0.024,40.432,8.146,48.554
			c2.227,2.227,2.942,4.353,2.128,6.319c-0.438,1.057-1.696,2.832-5.198,2.832c-2.271,0-5.389-0.729-8.489-1.97
			c3.683,1.742,7.639,2.807,10.375,2.807c3.502,0,4.76-1.774,5.198-2.832c0.814-1.966,0.099-4.092-2.128-6.319
			C87.172,153.85,85.761,133.996,86.853,114.741z"/>
		<path fill="#393939" d="M71.217,64.287c0.941,2.269,0.571,4.557-0.989,6.119c-1.638,1.646-4.09,10.362-6.225,21.671
			c1.241-2.835,2.528-5.655,3.825-8.358c1.569-6.626,3.129-11.315,4.285-12.476c1.56-1.562,1.93-3.85,0.989-6.119
			c-0.943-2.277-3.327-4.593-6.16-5.502C68.914,60.767,70.493,62.539,71.217,64.287z"/>
		<path fill="#393939" d="M28.021,76.219c-6.98,3.986-19.139,13.494-20.083,25.017c-0.174,2.087-1.888,3.656-3.985,3.656
			c-0.22,0-0.432-0.038-0.644-0.072c0.707,0.581,1.592,0.909,2.529,0.909c2.097,0,3.811-1.568,3.985-3.656
			c0.84-10.259,10.563-18.909,17.614-23.499C27.627,77.761,27.822,76.971,28.021,76.219z"/>
		<path fill="#393939" d="M64.696,115.694c-2.345,6.163-5.029,11.539-5.029,14.532v0.102c0,2.123-1.737,3.865-3.874,3.865
			l-0.238-0.008c-0.983-0.065-1.943-0.253-2.953-0.596c1.585,0.909,3.283,1.328,4.868,1.432l-0.249,0.008
			c2.138,0,3.446-1.742,3.446-3.865v-0.102c0-2.051,1.659-5.239,3.173-9.016C63.941,119.931,64.52,117.809,64.696,115.694z"/>
		<path fill="#393939" d="M43.427,116.158c-0.079-1.202-0.134-2.454-0.134-3.815c0-0.683-0.018-1.473,0.002-2.353
			c-2.572,7.722-4.57,14.348-5.052,16.872c0.367,0.965,0.363,2.009-0.036,2.973c-0.644,1.555-2.175,2.522-3.991,2.522
			c-0.41,0-0.9-0.056-1.441-0.2c1.314,0.815,2.482,1.036,3.325,1.036c1.816,0,3.346-0.967,3.99-2.522
			c0.399-0.963,0.399-2.008,0.032-2.973C40.487,125.781,41.726,121.493,43.427,116.158z"/>
	</g>
	<path fill="#FFFFFF" d="M286.82,61.203c-1.661,0-3.01,2.736-1.349,4.397c16.608,16.608,20.241,53.871-12.559,53.871
		c-5.19,0-9.688-4.982-9.688-7.629c0-6.591,2.837-30.776,2.837-35.072c0-1.759-8.442,0.698-9.826,2.082
		c-1.001,1.001-1.492,4.905-1.708,9.701c-6.138,9.292-16.062,23.929-17.668,23.929c-3.598,0,9.965-46.224,17.922-46.224
		c2.353,0,6.781,3.045,6.781,3.045c0-4.152-9.169-9.999-12.49-9.999c-11.358,0-18.512,13.795-22.225,26.843
		c-1.515,1.715-3.475,3.189-5.765,3.189c-1.695-1.695,5.259-21.209,5.259-25.43c0-2.255-5.077-5.189-11.285-8.563
		c0.048-1.518,0.075-3.046,0.075-4.584c0-33.492-11.625-57.573-23.527-45.671c-11.902,11.902-11.856,28.786-0.646,39.997
		c5.816,5.816,14.709,10.686,19.709,13.619c0,0.04,0,0.079,0,0.12c0,22.11-9.864,38.178-11.68,39.994l-2.335,2.906
		c-0.934,0.934-8.081,8.119-11.228,8.119c-2.921,0,4.655-39.515,11.045-45.905c0.795-0.795,1.178-4.382-0.325-4.382
		c-6.39,0-10.495,2.3-12.595,4.399c-2.023,2.023-8.082,31.278-8.523,37.169c-2.985,4.455-6.911,8.718-11.036,8.718
		c-2.921,0,4.577-39.515,10.966-45.905c0.795-0.795,1.139-4.382-0.364-4.382c-6.39,0-10.515,2.3-12.614,4.399
		c-2.1,2.099-8.561,33.547-8.561,37.746c0,3.521,1.13,6.62,2.747,9.043c-2.29,7.3-6.855,17.118-10.017,22.264
		c-3.512-10.571-2.964-27.169-0.477-44.685c18.153-20.289,23.937-61.171,19.595-73.109c0.409-0.716,0.776-1.243,1.092-1.559
		c1.513-1.513-0.126-2.333-1.198-2.333c-1.072,0-11.634,1.293-12.674,2.333c-2.49,2.49-21.844,50.169-20.782,88.899
		c-3.107,5.021-6.534,9.289-7.982,9.289c-1.592,0,6.159-35.239,6.159-36.733c0-1.759-8.442,0.698-9.826,2.082
		c-1.006,1.006-1.896,5.148-2.63,10.241c-6.044,9.18-16.734,25.05-18.407,25.05c-3.598,0,9.965-46.224,17.922-46.224
		c2.353,0,6.781,3.045,6.781,3.045c0-4.152-9.169-9.999-12.49-9.999c-17.888,0-25.361,34.219-25.361,45.844
		c0,4.844,6.859,12.482,11.565,12.482c3.136,0,12.807-12.175,18.915-21.162c-0.728,7.289-1.14,14.112-1.14,15.323
		c0,2.63,3.598,5.813,6.228,5.813c1.833,0,6.394-5.425,10.43-11.423c0.87,13.913,4.612,26.409,13.051,34.849
		c2.522,2.522,8.071,2.27,5.801,0c-1.376-1.376-2.518-3.132-3.461-5.19c3.293-4.614,8.346-14.694,10.855-22.712
		c1.928,1.915,4.125,3.024,5.934,3.024c2.914,0,7.781-4.515,11.446-9.353c1.107,5.637,4.004,9.353,7.323,9.353
		c5.277,0,12.601-6.315,15.316-9.03c9.764-9.764,15.364-27.173,16.686-47.04c2.228,1.038,3.635,1.611,3.635,1.611
		s-5.536,18.13-5.536,21.867c0,4.909,4.319,9.273,6.118,9.273c2.004,0,4.496-1.084,6.735-2.524
		c-1.394,5.946-2.058,11.391-2.058,14.841c0,4.844,6.859,12.482,11.565,12.482c3.169,0,13.013-12.435,19.108-21.447
		c0.006,7.281,0.328,14.337,0.328,15.608c0,5.259,8.511,10.587,18.614,10.587c25.119,0,32.8-15.154,32.8-53.767
		C306.126,61.137,292.01,61.203,286.82,61.203z M162.603,21.038c-0.698,27.043-7.819,47.591-15.306,57.174
		C151.377,55.316,158.018,32.552,162.603,21.038z M192.641,36.987c0-10.795,5.951-19.998,11.348-19.998
		c7.598,7.598,7.971,21.011,7.972,36.676C202.799,48.694,192.641,42.914,192.641,36.987z M90.851,163.274
		c6.332,6.332-9.446,3.218-15.57-2.906c-10.899-10.899-9.037-45.98-3.015-71.44c-5.885,12.737-14.123,33.831-15.866,40.854
		c-0.002,0.169-0.007,0.347-0.008,0.514c-0.002,0.33-0.284,0.595-0.613,0.573c-8.554-0.563-9.215-12.98-9.215-18.525
		c0-4.642,0.463-16.738,2.555-27.947C43.113,98.866,34.8,124.322,34.8,127.568c1.246,1.246-0.761,2.56-3.322,0
		c-10.034-10.034-0.623-53.767,1.799-56.189c0-3.363-27.128,10.989-28.651,29.587c-0.049,0.601-0.827,0.822-1.203,0.35
		c-11.51-14.461,7.149-46.198,38.711-46.198c5.536,0,4.083,5.536,2.214,7.404c-1.719,1.719-14.84,48.786-10.956,62.302
		c0.091-4.038,12.365-48.177,20.258-55.557c2.237-4.564,5.155-7.576,8.967-7.576c3.46,0,7.197,4.429,5.259,6.366
		c-4.156,4.156-9.372,31.619-10.987,51.859c2.125-7.607,12.075-33.09,19.77-45.786c3.062-8.143,6.517-13.408,9.761-13.408
		c3.875,0,5.536,6.435,3.391,6.435C85.972,70.998,72.375,144.798,90.851,163.274z"/>
	<g>
		<path fill="#FFFFFF" d="M176.633,145.32v-9.484h0.662v9.484H176.633z"/>
		<path fill="#FFFFFF" d="M186.808,145.32l-3.536-8.758h-0.052c0.036,0.537,0.052,1.085,0.052,1.648v7.11h-0.636v-9.484h1.025
			l3.36,8.343h0.039l3.36-8.343h0.999v9.484h-0.668v-7.188c0-0.501,0.026-1.02,0.078-1.557h-0.052l-3.549,8.745H186.808z"/>
		<path fill="#FFFFFF" d="M204.733,140.564c0,1.505-0.376,2.695-1.129,3.571c-0.753,0.876-1.791,1.314-3.114,1.314
			c-1.32,0-2.355-0.438-3.107-1.314c-0.753-0.876-1.129-2.071-1.129-3.584c0-1.51,0.38-2.697,1.139-3.565
			c0.759-0.868,1.794-1.301,3.111-1.301c1.323,0,2.358,0.436,3.107,1.307C204.356,137.864,204.733,139.054,204.733,140.564z
			 M196.974,140.564c0,1.357,0.302,2.408,0.908,3.15c0.603,0.741,1.473,1.113,2.608,1.113c1.142,0,2.014-0.368,2.618-1.103
			c0.603-0.735,0.905-1.789,0.905-3.159c0-1.367-0.302-2.415-0.905-3.143c-0.603-0.728-1.473-1.093-2.605-1.093
			c-1.129,0-2.001,0.368-2.611,1.103C197.279,138.166,196.974,139.21,196.974,140.564z"/>
		<path fill="#FFFFFF" d="M209.569,135.835h2.601c1.171,0,2.031,0.199,2.582,0.597c0.548,0.397,0.824,0.999,0.824,1.803
			c0,0.55-0.169,1.007-0.503,1.372c-0.337,0.365-0.827,0.6-1.469,0.704v0.039c0.756,0.112,1.314,0.352,1.67,0.717
			c0.357,0.365,0.535,0.874,0.535,1.528c0,0.874-0.292,1.546-0.869,2.018c-0.581,0.472-1.401,0.707-2.465,0.707h-2.906V135.835z
			 M210.231,140.058h2.089c0.889,0,1.538-0.148,1.943-0.444c0.402-0.297,0.607-0.761,0.607-1.392c0-0.631-0.23-1.09-0.684-1.375
			c-0.457-0.285-1.139-0.428-2.04-0.428h-1.914V140.058z M210.231,140.642v4.094h2.232c1.755,0,2.634-0.714,2.634-2.141
			c0-1.302-0.928-1.953-2.777-1.953H210.231z"/>
		<path fill="#FFFFFF" d="M220.555,145.32v-9.484h0.662v9.484H220.555z"/>
		<path fill="#FFFFFF" d="M226.559,145.32v-9.484h0.662v8.862h4.522v0.623H226.559z"/>
		<path fill="#FFFFFF" d="M236.034,145.32v-9.484h0.662v9.484H236.034z"/>
		<path fill="#FFFFFF" d="M246.608,141.972h-3.853l-1.323,3.347h-0.733l3.815-9.523h0.422l3.737,9.523h-0.746L246.608,141.972z
			 M242.995,141.375h3.393l-1.291-3.419c-0.11-0.268-0.24-0.641-0.389-1.116c-0.117,0.415-0.247,0.791-0.383,1.129L242.995,141.375z
			 M243.968,134.972c0.315-0.342,0.626-0.712,0.937-1.113c0.308-0.401,0.519-0.704,0.633-0.911h0.915v0.11
			c-0.156,0.225-0.422,0.524-0.795,0.895c-0.376,0.371-0.788,0.746-1.236,1.122h-0.454V134.972z"/>
		<path fill="#FFFFFF" d="M253.332,141.187v4.132h-0.662v-9.484h2.258c1.174,0,2.044,0.217,2.608,0.652
			c0.561,0.435,0.843,1.088,0.843,1.962c0,0.636-0.169,1.173-0.503,1.609c-0.337,0.436-0.847,0.751-1.528,0.941l2.575,4.321h-0.791
			l-2.446-4.132H253.332z M253.332,140.616h1.81c0.798,0,1.421-0.178,1.862-0.535c0.441-0.357,0.662-0.884,0.662-1.58
			c0-0.722-0.217-1.247-0.649-1.576c-0.435-0.329-1.139-0.493-2.115-0.493h-1.57V140.616z"/>
		<path fill="#FFFFFF" d="M263.222,145.32v-9.484h0.662v9.484H263.222z"/>
		<path fill="#FFFFFF" d="M273.793,141.972h-3.853l-1.323,3.347h-0.733l3.815-9.523h0.422l3.737,9.523h-0.746L273.793,141.972z
			 M270.18,141.375h3.393l-1.291-3.419c-0.107-0.268-0.237-0.641-0.389-1.116c-0.117,0.415-0.243,0.791-0.383,1.129L270.18,141.375z
			"/>
	</g>
	<circle fill="#FFFFFF" cx="168.541" cy="140.336" r="2.491"/>
</g>
</svg>
