<?xml version="1.0" encoding="utf-8"?>
<!-- Generator: Adobe Illustrator 19.2.1, SVG Export Plug-In . SVG Version: 6.00 Build 0)  -->
<svg version="1.0" id="Layer_1" xmlns="http://www.w3.org/2000/svg" xmlns:xlink="http://www.w3.org/1999/xlink" x="0px" y="0px"
	 viewBox="0 0 311.333 170.912" enable-background="new 0 0 311.333 170.912" xml:space="preserve">
<g>
	<path fill="#FFFFFF" d="M290.505,71.864c-1.619-0.285-3.404,2.15-2.071,4.053c13.332,19.04,1.847,46.116-19.336,42.381
		c-7.412-1.307-9.035-8.269-8.295-12.467c1.133-6.424,8.054-29.506,8.792-33.693c0.302-1.714-8.348-0.771-9.934,0.34
		c-1.253,0.877-2.509,5.233-3.614,10.464c-5.626,8.591-17.655,26.638-19.43,26.638c-3.561,0,9.861-45.745,17.736-45.745
		c2.328,0,6.711,3.013,6.711,3.013c0-4.109-9.074-9.895-12.361-9.895c-11.24,0-18.32,13.652-21.995,26.565
		c-1.5,1.697-3.439,3.156-5.706,3.156c-1.678-1.678,5.204-20.989,5.204-25.167c0-2.232-5.024-5.135-11.168-8.475
		c0.048-1.502,0.075-3.014,0.075-4.537c0-33.145-11.505-56.976-23.283-45.197c-11.779,11.779-12.082,28.488-0.988,39.582
		C196.6,48.636,205,53.456,210,56.358c0,0.04,0,0.079,0,0.118c0,21.88-9.413,37.782-11.21,39.579l-2.137,2.876
		c-0.924,0.924-7.91,8.034-11.025,8.034c-2.891,0,4.65-39.105,10.974-45.429c0.786-0.786,1.187-4.336-0.3-4.336
		c-6.324,0-10.375,2.276-12.453,4.354c-2.002,2.002-7.993,30.954-8.429,36.784c-2.954,4.409-6.836,8.628-10.918,8.628
		c-2.891,0,4.53-39.105,10.854-45.429c0.786-0.786,1.128-4.336-0.359-4.336c-6.324,0-10.405,2.276-12.483,4.354
		c-2.078,2.078-8.472,33.199-8.472,37.354c0,3.484,1.118,6.552,2.718,8.95c-2.266,7.224-6.784,16.94-9.913,22.033
		c-3.475-10.461-2.934-26.887-0.472-44.221c17.965-20.079,23.689-60.537,19.391-72.35c0.405-0.709,0.768-1.23,1.08-1.543
		c1.498-1.498-0.125-2.309-1.186-2.309c-1.061,0-11.513,1.279-12.543,2.309c-2.464,2.464-21.617,49.649-20.566,87.976
		c-3.075,4.969-6.466,9.193-7.9,9.193c-1.575,0,6.095-34.874,6.095-36.352c0-1.741-8.355,0.69-9.724,2.06
		c-0.996,0.996-1.876,5.095-2.602,10.135c-5.981,9.085-16.561,24.79-18.216,24.79c-3.561,0,9.861-45.745,17.736-45.745
		c2.328,0,6.711,3.013,6.711,3.013c0-4.109-9.074-9.895-12.361-9.895c-17.702,0-25.098,33.864-25.098,45.368
		c0,4.794,6.788,12.352,11.445,12.352c3.103,0,12.674-12.049,18.719-20.942c-0.72,7.214-1.128,13.965-1.128,15.164
		c0,2.602,3.561,5.752,6.163,5.752c1.814,0,6.328-5.368,10.322-11.304c0.861,13.769,4.564,26.135,12.916,34.487
		c2.496,2.496,7.987,2.247,5.741,0c-1.362-1.362-2.492-3.099-3.425-5.136c3.259-4.566,8.259-14.542,10.742-22.477
		c1.908,1.895,4.082,2.992,5.873,2.992c2.884,0,7.7-4.468,11.327-9.256c1.095,5.578,3.962,9.256,7.247,9.256
		c5.223,0,12.47-6.249,15.157-8.937c9.663-9.663,15.205-26.891,16.513-46.552c2.205,1.028,3.597,1.594,3.597,1.594
		s-5.478,17.942-5.478,21.64c0,4.858,4.274,9.176,6.055,9.176c1.983,0,4.45-1.073,6.665-2.498
		c-1.379,5.884-2.037,11.273-2.037,14.687c0,4.794,6.788,12.352,11.445,12.352c3.177,0,13.139-12.635,19.149-21.578
		c-0.887,5.51-1.507,10.222-1.683,11.222c-1.003,5.69,5.905,15.018,15.751,16.754c9.779,1.724,33.642-3.868,38.47-31.249
		C308.404,80.381,299.61,73.469,290.505,71.864z M163.133,19.085c-0.691,26.763-7.738,47.098-15.148,56.581
		C152.024,53.007,158.596,30.479,163.133,19.085z M192.86,34.868c0-10.683,5.889-19.791,11.231-19.791
		c7.52,7.52,7.889,20.793,7.889,36.295C202.912,46.453,192.86,40.734,192.86,34.868z M92.125,159.845
		c6.266,6.266-9.348,3.184-15.408-2.876c-10.786-10.786-8.944-45.503-2.983-70.698c-5.824,12.605-13.976,33.48-15.702,40.431
		c-0.002,0.167-0.007,0.344-0.008,0.508c-0.002,0.327-0.281,0.589-0.607,0.567c-8.465-0.557-9.119-12.846-9.119-18.333
		c0-4.594,0.458-16.565,2.529-27.657c-5.943,14.319-14.17,39.511-14.17,42.723c1.233,1.233-0.753,2.534-3.287,0
		c-9.93-9.93-0.616-53.209,1.78-55.606c0-3.328-26.846,10.875-28.353,29.28c-0.049,0.595-0.819,0.813-1.19,0.346
		C-5.784,84.217,12.68,52.81,43.915,52.81c5.478,0,4.04,5.478,2.191,7.327c-1.701,1.701-14.686,48.28-10.843,61.656
		c0.09-3.996,12.237-47.677,20.048-54.98c2.214-4.517,5.102-7.497,8.874-7.497c3.424,0,7.122,4.383,5.205,6.3
		c-4.113,4.113-9.274,31.291-10.873,51.321c2.103-7.528,11.95-32.747,19.565-45.311c3.03-8.058,6.449-13.269,9.66-13.269
		c3.835,0,5.478,6.369,3.356,6.369C87.297,68.526,73.841,141.561,92.125,159.845z"/>
	<g>
		<path fill="#393939" d="M170.538,11.85c-0.184,0.645-0.527,1.341-1.174,2.045c2.112,8.37,1.026,25.213-3.925,41.871
			c0.698-0.303,1.485-0.576,2.319-0.827c3.784-14.975,4.494-29.408,2.59-36.954c1.948-2.12,1.309-4.212,1.058-4.817
			C171.195,12.657,170.895,12.22,170.538,11.85z"/>
		<path fill="#393939" d="M199.981,67.953c1.705-1.705,2.038-5.247,1.197-7.277c-0.149-0.361-0.343-0.686-0.563-0.982
			c-0.104,1.572-0.618,3.18-1.607,4.169c-4.046,4.046-9.699,28.38-10.522,38.185c0.498-0.371,1.069-0.829,1.671-1.327
			C191.98,89.339,196.555,71.378,199.981,67.953z"/>
		<path fill="#393939" d="M195.65,53.952c0.239-0.006,0.448-0.037,0.693-0.037c1.7,0,3.18,1.024,3.862,2.671
			c0.081,0.196,0.141,0.416,0.2,0.637c2.649,1.698,5.221,3.198,7.388,4.443c0.084-1.123,0.148-2.263,0.178-3.428
			c-0.228-0.132-0.462-0.265-0.701-0.403c-5.126-2.945-12.875-7.396-18.109-12.63c-3.884-3.884-6.553-8.32-8.039-12.973
			c1.022,6.129,4.003,12.054,9.012,17.063C191.775,50.935,193.673,52.487,195.65,53.952z"/>
		<path fill="#393939" d="M128.95,68.744c-0.295-0.838-0.596-1.639-1.137-2.398c0.013,0.169,0.187,0.333,0.187,0.503v1.973
			C128,68.789,128.752,68.764,128.95,68.744z"/>
		<path fill="#393939" d="M95.302,63.574c-0.009,0.256-0.02,0.511-0.06,0.752c0.083-0.122,0.169-0.238,0.252-0.358
			C95.436,63.835,95.368,63.705,95.302,63.574z"/>
		<path fill="#393939" d="M93.385,67.324c-0.016,0.011-0.032,0.021-0.048,0.032c-0.037,0.08-0.075,0.165-0.113,0.255
			C93.277,67.517,93.332,67.419,93.385,67.324z"/>
		<path fill="#393939" d="M196.147,34.868c0,0.744,0.385,1.561,1.031,2.414c0.484-7.474,4.1-13.09,6.725-14.488
			c1.615,2.015,2.759,4.474,3.599,7.301c-0.828-4.629-2.221-8.459-4.573-11.392C200.112,20.204,196.147,26.563,196.147,34.868z"/>
		<path fill="#393939" d="M264.796,67.985c-0.265-0.566-0.599-1.111-0.974-1.638c0.013,0.168,0.052,0.332,0.052,0.503v1.189
			C264.237,68.017,264.535,68,264.796,67.985z"/>
		<path fill="#393939" d="M269.11,86.77c-2.109,7.609-4.485,16.233-5.084,19.632c-0.236,1.337-0.147,3.419,0.789,5.252
			c0.03,0.058,0.073,0.101,0.104,0.158c0.003-0.482,0.033-0.936,0.101-1.319c0.599-3.399,2.996-12.023,5.105-19.632
			c1.79-6.459,3.347-12.036,3.705-14.06c0.193-1.093-0.082-2.208-0.796-3.061c-0.121-0.144-0.256-0.265-0.391-0.387
			C272.137,75.748,270.743,80.876,269.11,86.77z"/>
		<path fill="#393939" d="M286.715,81.894c1.688,2.411,2.953,5.036,3.811,7.751c-0.657-4.156-2.259-8.236-4.785-11.842
			c-0.009-0.013-0.016-0.028-0.025-0.041C285.517,79.197,285.846,80.652,286.715,81.894z"/>
		<path fill="#393939" d="M226.955,72.953c0.993-2.303,2.151-4.623,3.486-6.819c0.012-0.183,0.028-0.373,0.028-0.536
			c0-1.108-0.37-2.113-1.037-3.096C229.202,64.665,228.307,68.035,226.955,72.953z"/>
		<path fill="#393939" d="M219.367,51.671c-0.064-11.505-1.323-21.11-3.361-28.752c1.507,7.113,2.396,15.644,2.396,25.577
			c0,0.876-0.008,1.748-0.024,2.616C218.731,51.307,219.031,51.482,219.367,51.671z"/>
		<path fill="#393939" d="M178.009,68.761c0.73-2.774,1.458-5.188,2.143-6.93c-0.074-0.412-0.17-0.806-0.312-1.148
			c-0.149-0.36-0.342-0.684-0.561-0.98c-0.102,1.571-0.612,3.175-1.597,4.159c-4.133,4.133-9.923,29.465-10.532,38.812
			c0.518-0.353,1.063-0.828,1.618-1.357C170.406,90.667,174.617,73.674,178.009,68.761z"/>
		<path fill="#393939" d="M245.738,90.54c4.406-12.564,8.235-18.393,9.758-19.3c0.194,0.041,0.447,0.125,0.736,0.24
			c0.504-0.805,1.011-1.32,1.544-1.693c0.281-0.197,0.608-0.374,0.973-0.533c-1.574-1.019-3.403-1.931-4.226-2.104
			c-1.523,0.907-5.353,6.736-9.758,19.3c-1.764,5.037-3.067,9.518-3.956,13.103c1.061-1.479,2.276-3.209,3.647-5.2
			C244.853,93.122,245.278,91.852,245.738,90.54z"/>
		<path fill="#393939" d="M109.326,90.54c4.404-12.566,8.234-18.393,9.758-19.3c0.197,0.042,0.459,0.132,0.753,0.249
			c0.951-0.584,2.177-1.121,3.493-1.562l-0.536-0.368c-1.66-1.136-3.777-2.218-4.683-2.409c-1.523,0.907-5.354,6.735-9.758,19.3
			c-1.764,5.032-3.066,9.51-3.955,13.095c1.059-1.477,2.278-3.214,3.648-5.203C108.443,93.114,108.867,91.848,109.326,90.54z"/>
		<path fill="#393939" d="M130.364,112.067c-4.879,5.868-7.028,5.868-7.971,5.868c-3.045,0-6.737-2.39-8.465-5.512
			c-0.008,0.235-0.012,0.426-0.012,0.563c0,4.656,5.324,9.039,9.45,9.039c0.932,0,3.049-0.01,7.813-5.682
			C130.872,114.955,130.599,113.531,130.364,112.067z"/>
		<path fill="#393939" d="M154.894,140.246c-0.33,0.798-1.452,2.651-4.726,2.651c-1.991,0-4.84-0.721-6.861-2.743
			c-5.254-5.254-9.035-12.225-11.355-20.771c2.146,10.442,6.259,18.791,12.328,24.861c2.022,2.022,4.87,2.743,6.861,2.743
			c3.274,0,4.396-1.854,4.726-2.651c0.293-0.706,0.729-2.481-0.876-4.363C154.959,140.073,154.926,140.17,154.894,140.246z"/>
		<path fill="#393939" d="M112.943,108.895c0-0.538,0.062-1.868,0.178-3.7c-5.129,6.593-10.888,12.765-14.482,12.765
			c-4.19,0-9.283-3.902-12.251-8.49c-0.847,13.302-0.523,27.048,2.309,37.004c-1.913-9.456-2.073-21.346-1.336-32.913
			c2.968,4.589,8.061,8.49,12.251,8.49c3.375,0,8.66-5.443,13.539-11.567C113.021,109.962,112.943,109.431,112.943,108.895z"/>
		<path fill="#393939" d="M221.195,93.165c-0.733,0.16-1.478,0.254-2.217,0.254c-2.343,0-5.154-2.122-7.075-5.149
			c-2.894,7.518-6.694,13.736-11.286,18.328c-1.655,1.653-10.27,9.9-17.482,9.9c-3.433,0-6.466-2.257-8.474-6.062
			c-2.855,2.952-6.677,6.062-10.1,6.062c-1.358,0-2.794-0.369-4.211-1.063c-2.461,6.475-5.908,13.264-8.596,17.483
			c0.586,1.01,1.226,1.863,1.913,2.556c2.516-4.225,5.472-10.206,7.656-15.949c1.416,0.693,2.853,1.063,4.211,1.063
			c3.423,0,7.245-3.111,10.1-6.062c2.008,3.805,5.041,6.062,8.474,6.062c7.211,0,15.827-8.247,17.482-9.9
			c4.592-4.592,8.393-10.81,11.286-18.328c1.921,3.027,4.732,5.149,7.075,5.149c0.222,0,0.444-0.024,0.667-0.04
			C220.763,96.099,220.951,94.662,221.195,93.165z"/>
		<path fill="#393939" d="M96.554,163.774c-0.433,1.046-1.677,2.802-5.143,2.802c-4.605,0-12.726-2.992-17.018-7.284
			c-2.493-2.493-4.333-6.002-5.661-10.181c1.265,5.996,3.365,11.002,6.634,14.271c4.292,4.292,12.413,7.284,17.018,7.284
			c3.466,0,4.71-1.756,5.143-2.802c0.613-1.48,0.345-3.051-0.785-4.689C96.691,163.376,96.636,163.576,96.554,163.774z"/>
		<path fill="#393939" d="M310.154,85.944c0.136,1.421,0.096,2.904-0.177,4.451c-2.048,11.607-7.667,21.095-16.251,27.185
			c-9.157,6.497-18.358,7.333-21.891,7.333c-0.002,0-0.002,0-0.002,0c-1.488,0-2.879-0.246-4.138-0.468
			c-8.426-1.486-15.084-7.831-17.533-14.053c0.545,7.284,8.204,16.315,18.506,18.132c1.258,0.221,2.65,0.389,4.138,0.389
			c0,0,0,0,0.002,0c3.533,0,12.734-0.79,21.891-7.287c8.584-6.089,14.203-15.488,16.251-27.095
			C311.499,91.42,311.143,88.515,310.154,85.944z"/>
		<path fill="#393939" d="M249.143,105.697c-4.918,6.255-10.563,12.264-14.09,12.264c-5.03,0-11.347-5.623-13.741-11.306
			c0.195,6.694,8.456,15.396,14.714,15.396c3.501,0,9.087-5.919,13.978-12.123C249.479,108.489,249.179,107.059,249.143,105.697z"/>
		<path fill="#393939" d="M71.713,67.941c-1.619,1.629-4.045,10.253-6.156,21.441c1.173-2.68,2.388-5.351,3.614-7.917
			c1.3-4.998,2.551-8.464,3.516-9.434c1.546-1.546,1.913-3.809,0.982-6.054c-0.14-0.338-0.317-0.676-0.518-1.012
			C73.015,66.086,72.537,67.117,71.713,67.941z"/>
		<path fill="#393939" d="M66.108,112.762C63.787,118.861,61,124.18,61,127.143v0.098c0,2.101-1.585,3.825-3.702,3.825l-0.169-0.008
			c-3.8-0.25-8.025-2.223-10.384-8.915c1.878,10.015,7.176,12.711,11.66,13.005l0.357,0.008c2.116,0,4.237-1.724,4.237-3.825v-0.098
			c0-2.15,1.109-5.55,2.601-9.579C65.693,118.704,65.863,115.727,66.108,112.762z"/>
		<path fill="#393939" d="M129.244,98.843c-0.006-0.332-0.011-0.668-0.014-1.002c-0.087,0.483-0.173,0.958-0.257,1.425
			C129.063,99.127,129.153,98.988,129.244,98.843z"/>
		<path fill="#393939" d="M148.766,119.095c-0.35-7.687,0.206-17.067,1.702-27.905c0.627-0.728,1.23-1.49,1.827-2.259
			c0.421-2.293,0.908-4.816,1.436-7.394c-1.327,1.961-2.738,3.823-4.236,5.563c-1.86,13.474-2.292,24.743-1.3,33.235
			C148.387,119.932,148.575,119.507,148.766,119.095z"/>
		<path fill="#393939" d="M152.809,109.27c0.117-0.33,0.25-0.674,0.359-0.998c-0.526-0.954-0.937-1.956-1.294-2.975
			C152.036,106.657,152.367,107.981,152.809,109.27z"/>
		<path fill="#393939" d="M45.237,113.753c-0.103-1.346-0.175-2.757-0.175-4.31c0-0.677-0.017-1.459,0.003-2.332
			c-2.546,7.643-4.524,14.203-5.002,16.702c0.364,0.953,0.36,1.987-0.034,2.94c-0.638,1.539-2.154,2.496-3.951,2.496
			c-1.193,0-3.037-0.419-5.032-2.416c-1.591-1.591-2.833-3.81-3.73-6.636c0.851,4.84,2.416,8.436,4.706,10.726
			c1.996,1.997,3.842,2.416,5.035,2.416c1.797,0,3.318-0.957,3.956-2.496c0.394-0.953,0.408-1.987,0.044-2.94
			C41.48,125.687,43.101,120.277,45.237,113.753z"/>
		<path fill="#393939" d="M48.727,62.146c-1.017,2.136-4.076,12.519-6.7,24.183c1.708-4.707,3.515-9.191,5.318-12.943
			c1.044-3.606,1.902-6.198,2.355-7.149c1.871-2.112,3.032-5.82,1.824-8.736c-0.106-0.257-0.28-0.594-0.514-0.955
			C50.875,58.65,49.966,60.748,48.727,62.146z"/>
		<path fill="#393939" d="M29.948,73.693C23.04,77.638,11.007,87.047,10.072,98.45c-0.169,2.064-1.865,3.618-3.944,3.618
			c-1.212,0-2.34-0.544-3.095-1.493c-1.261-1.585-2.228-3.36-2.909-5.274c0.476,3.505,1.763,6.702,3.882,9.365
			c0.754,0.949,1.883,1.493,3.095,1.493c2.079,0,3.775-1.554,3.945-3.618c0.84-10.255,10.646-18.882,17.639-23.388
			C29.08,77.236,29.503,75.374,29.948,73.693z"/>
	</g>
	<g>
		<path fill="#FFFFFF" d="M176.242,135.933h0.421v8.765h-0.421V135.933z"/>
		<path fill="#FFFFFF" d="M188.992,136.433l-3.415,8.266h-0.132l-3.419-8.266v8.266h-0.421v-8.765h0.671l3.232,7.845l3.232-7.845
			h0.671v8.765h-0.421V136.433z"/>
		<path fill="#FFFFFF" d="M198.224,135.789c2.536,0,4.167,1.997,4.167,4.534c0,2.536-1.631,4.533-4.167,4.533
			c-2.549,0-4.167-1.997-4.167-4.533C194.057,137.786,195.675,135.789,198.224,135.789z M198.224,136.182
			c-2.273,0-3.704,1.735-3.704,4.141c0,2.379,1.432,4.139,3.704,4.139c2.247,0,3.704-1.761,3.704-4.139
			C201.928,137.917,200.471,136.182,198.224,136.182z"/>
		<path fill="#FFFFFF" d="M207.035,135.933h3.3c1.406,0,2.391,0.788,2.391,2.234c0,1.104-0.777,1.852-1.55,2.011
			c0.931,0.144,1.721,1.143,1.721,2.154c0,1.499-0.973,2.366-2.51,2.366h-3.351V135.933z M210.335,139.994
			c1.287,0,1.929-0.815,1.929-1.826c0-0.998-0.642-1.839-1.929-1.839h-2.879v3.666H210.335z M210.387,144.304
			c1.287,0,2.051-0.761,2.051-1.958c0-0.998-0.684-1.958-2.051-1.958h-2.931v3.916H210.387z"/>
		<path fill="#FFFFFF" d="M217.554,135.933h0.421v8.765h-0.421V135.933z"/>
		<path fill="#FFFFFF" d="M222.918,135.933h0.421v8.37h4.401v0.395h-4.821V135.933z"/>
		<path fill="#FFFFFF" d="M232.109,135.933h0.421v8.765h-0.421V135.933z"/>
		<path fill="#FFFFFF" d="M242.939,142.345h-4.886l-0.973,2.353h-0.488l3.653-8.765h0.501l3.653,8.765h-0.488L242.939,142.345z
			 M238.211,141.952h4.571l-2.286-5.532L238.211,141.952z M240.288,135.197l2.103-1.892h0.591l-2.302,1.892H240.288z"/>
		<path fill="#FFFFFF" d="M250.987,140.914h-2.103v3.785h-0.421v-8.765h3.024c1.419,0,2.59,0.881,2.59,2.483
			c0,1.603-1.172,2.497-2.59,2.497l2.706,3.785h-0.536L250.987,140.914z M251.488,136.328h-2.603v4.191h2.603
			c1.287,0,2.128-0.892,2.128-2.103C253.616,137.208,252.775,136.328,251.488,136.328z"/>
		<path fill="#FFFFFF" d="M258.707,135.933h0.421v8.765h-0.421V135.933z"/>
		<path fill="#FFFFFF" d="M269.537,142.345h-4.886l-0.973,2.353h-0.488l3.653-8.765h0.501l3.653,8.765h-0.488L269.537,142.345z
			 M264.809,141.952h4.571l-2.286-5.532L264.809,141.952z"/>
	</g>
	<circle fill="#FFFFFF" cx="169.043" cy="140.886" r="2.602"/>
</g>
</svg>
