<?xml version="1.0" encoding="utf-8"?>
<!-- Generator: Adobe Illustrator 19.2.1, SVG Export Plug-In . SVG Version: 6.00 Build 0)  -->
<svg version="1.0" id="Layer_1" xmlns="http://www.w3.org/2000/svg" xmlns:xlink="http://www.w3.org/1999/xlink" x="0px" y="0px"
	 viewBox="0 0 100 100" enable-background="new 0 0 100 100" xml:space="preserve">
<path fill="#F4F4F4" d="M50,0C22.386,0,0,22.386,0,50s22.386,50,50,50s50-22.386,50-50S77.614,0,50,0z M76.617,54.915L53.882,72.853
	c-4.106,3.24-10.139,0.315-10.139-4.915v-5.022l-12.66,1.49C27.846,64.787,25,62.257,25,58.996V41.004
	c0-3.261,2.846-5.791,6.083-5.41l12.66,1.49v-5.022c0-5.23,6.033-8.155,10.139-4.915l22.735,17.938
	C79.794,47.591,79.794,52.408,76.617,54.915z"/>
</svg>
